<svg width="1600" height="800" xmlns="http://www.w3.org/2000/svg">

    <defs>
        <linearGradient id="apiGradient" x1="0%" y1="0%" x2="0%" y2="100%">
            <stop offset="0%" style="stop-color:#667eea;stop-opacity:1" />
            <stop offset="100%" style="stop-color:#764ba2;stop-opacity:1" />
        </linearGradient>
        <linearGradient id="dataGradient" x1="0%" y1="0%" x2="0%" y2="100%">
            <stop offset="0%" style="stop-color:#f093fb;stop-opacity:1" />
            <stop offset="100%" style="stop-color:#f5576c;stop-opacity:1" />
        </linearGradient>
        <linearGradient id="serviceGradient" x1="0%" y1="0%" x2="0%" y2="100%">
            <stop offset="0%" style="stop-color:#4facfe;stop-opacity:1" />
            <stop offset="100%" style="stop-color:#00f2fe;stop-opacity:1" />
        </linearGradient>
        <marker id="arrowhead" markerWidth="10" markerHeight="7" refX="10" refY="3.5" orient="auto">
            <polygon points="0 0, 10 3.5, 0 7" fill="#2563eb"/>
        </marker>
        <filter id="shadow" x="-20%" y="-20%" width="140%" height="140%">
            <feDropShadow dx="2" dy="2" stdDeviation="3" flood-color="#000" flood-opacity="0.3"/>
        </filter>
    </defs>
    
<rect x="700" y="350" width="200" height="100" fill="url(#serviceGradient)" stroke="#1e40af" stroke-width="3" rx="15" filter="url(#shadow)"/>
<text x="800" y="395" text-anchor="middle" font-family="Arial, sans-serif" font-size="14" font-weight="bold" fill="white">LockIt Event Process</text>
<text x="800" y="415" text-anchor="middle" font-family="Arial, sans-serif" font-size="12" fill="white">Event-Driven</text>
<text x="800" y="435" text-anchor="middle" font-family="Arial, sans-serif" font-size="11" fill="white">Zone: internal</text>
<rect x="1050" y="400" width="150" height="80" fill="#f8fafc" stroke="#475569" stroke-width="2" rx="8"/>
<text x="1125" y="1095" text-anchor="middle" font-family="Arial, sans-serif" font-size="12" font-weight="bold" fill="#1e293b">Appointment Set</text>
<rect x="976" y="576" width="150" height="80" fill="#f8fafc" stroke="#475569" stroke-width="2" rx="8"/>
<text x="1051" y="1021" text-anchor="middle" font-family="Arial, sans-serif" font-size="12" font-weight="bold" fill="#1e293b">Acount Analysis</text>
<rect x="800" y="649" width="150" height="80" fill="#f8fafc" stroke="#475569" stroke-width="2" rx="8"/>
<text x="875" y="845" text-anchor="middle" font-family="Arial, sans-serif" font-size="12" font-weight="bold" fill="#1e293b">Branch Customer</text>
<rect x="624" y="576" width="150" height="80" fill="#f8fafc" stroke="#475569" stroke-width="2" rx="8"/>
<text x="699" y="669" text-anchor="middle" font-family="Arial, sans-serif" font-size="12" font-weight="bold" fill="#1e293b">Banko POC</text>
<rect x="551" y="400" width="150" height="80" fill="#f8fafc" stroke="#475569" stroke-width="2" rx="8"/>
<text x="626" y="596" text-anchor="middle" font-family="Arial, sans-serif" font-size="12" font-weight="bold" fill="#1e293b">FICO/Blaze Deci</text>
<rect x="624" y="224" width="150" height="80" fill="#f8fafc" stroke="#475569" stroke-width="2" rx="8"/>
<text x="699" y="669" text-anchor="middle" font-family="Arial, sans-serif" font-size="12" font-weight="bold" fill="#1e293b">Branch Operatio</text>
<rect x="800" y="151" width="150" height="80" fill="#f8fafc" stroke="#475569" stroke-width="2" rx="8"/>
<text x="875" y="845" text-anchor="middle" font-family="Arial, sans-serif" font-size="12" font-weight="bold" fill="#1e293b">Contact Center </text>
<rect x="976" y="224" width="150" height="80" fill="#f8fafc" stroke="#475569" stroke-width="2" rx="8"/>
<text x="1051" y="1021" text-anchor="middle" font-family="Arial, sans-serif" font-size="12" font-weight="bold" fill="#1e293b">Credit & Debit </text>
<path d="M 1200 440 Q 950.0 390.0 700 400" stroke="#2563eb" stroke-width="3" fill="none" marker-end="url(#arrowhead)"/>
<rect x="890.0" y="378.0" width="120" height="20" fill="white" stroke="#e5e7eb" rx="10" opacity="0.9"/>
<text x="950.0" y="390.0" text-anchor="middle" font-family="Arial, sans-serif" font-size="11" font-weight="600" fill="#1e40af">activity events</text>
<path d="M 1126 616 Q 913.0 478.0 700 400" stroke="#2563eb" stroke-width="3" fill="none" marker-end="url(#arrowhead)"/>
<rect x="853.0" y="466.0" width="120" height="20" fill="white" stroke="#e5e7eb" rx="10" opacity="0.9"/>
<text x="913.0" y="478.0" text-anchor="middle" font-family="Arial, sans-serif" font-size="11" font-weight="600" fill="#1e40af">activity events</text>
<path d="M 950 689 Q 825.0 514.5 700 400" stroke="#2563eb" stroke-width="3" fill="none" marker-end="url(#arrowhead)"/>
<rect x="765.0" y="502.5" width="120" height="20" fill="white" stroke="#e5e7eb" rx="10" opacity="0.9"/>
<text x="825.0" y="514.5" text-anchor="middle" font-family="Arial, sans-serif" font-size="11" font-weight="600" fill="#1e40af">activity events</text>
<path d="M 774 616 Q 737.0 478.0 700 400" stroke="#2563eb" stroke-width="3" fill="none" marker-end="url(#arrowhead)"/>
<rect x="677.0" y="466.0" width="120" height="20" fill="white" stroke="#e5e7eb" rx="10" opacity="0.9"/>
<text x="737.0" y="478.0" text-anchor="middle" font-family="Arial, sans-serif" font-size="11" font-weight="600" fill="#1e40af">activity events</text>
<path d="M 701 440 Q 700.5 390.0 700 400" stroke="#2563eb" stroke-width="3" fill="none" marker-end="url(#arrowhead)"/>
<rect x="640.5" y="378.0" width="120" height="20" fill="white" stroke="#e5e7eb" rx="10" opacity="0.9"/>
<text x="700.5" y="390.0" text-anchor="middle" font-family="Arial, sans-serif" font-size="11" font-weight="600" fill="#1e40af">activity events</text>
<path d="M 774 264 Q 737.0 302.0 700 400" stroke="#2563eb" stroke-width="3" fill="none" marker-end="url(#arrowhead)"/>
<rect x="677.0" y="290.0" width="120" height="20" fill="white" stroke="#e5e7eb" rx="10" opacity="0.9"/>
<text x="737.0" y="302.0" text-anchor="middle" font-family="Arial, sans-serif" font-size="11" font-weight="600" fill="#1e40af">activity events</text>
<path d="M 950 191 Q 825.0 265.5 700 400" stroke="#2563eb" stroke-width="3" fill="none" marker-end="url(#arrowhead)"/>
<rect x="765.0" y="253.5" width="120" height="20" fill="white" stroke="#e5e7eb" rx="10" opacity="0.9"/>
<text x="825.0" y="265.5" text-anchor="middle" font-family="Arial, sans-serif" font-size="11" font-weight="600" fill="#1e40af">activity events</text>
<path d="M 1126 264 Q 913.0 302.0 700 400" stroke="#2563eb" stroke-width="3" fill="none" marker-end="url(#arrowhead)"/>
<rect x="853.0" y="290.0" width="120" height="20" fill="white" stroke="#e5e7eb" rx="10" opacity="0.9"/>
<text x="913.0" y="302.0" text-anchor="middle" font-family="Arial, sans-serif" font-size="11" font-weight="600" fill="#1e40af">activity events</text>
</svg>