<svg width="1600" height="800" xmlns="http://www.w3.org/2000/svg">

    <defs>
        <linearGradient id="apiGradient" x1="0%" y1="0%" x2="0%" y2="100%">
            <stop offset="0%" style="stop-color:#667eea;stop-opacity:1" />
            <stop offset="100%" style="stop-color:#764ba2;stop-opacity:1" />
        </linearGradient>
        <linearGradient id="dataGradient" x1="0%" y1="0%" x2="0%" y2="100%">
            <stop offset="0%" style="stop-color:#f093fb;stop-opacity:1" />
            <stop offset="100%" style="stop-color:#f5576c;stop-opacity:1" />
        </linearGradient>
        <linearGradient id="serviceGradient" x1="0%" y1="0%" x2="0%" y2="100%">
            <stop offset="0%" style="stop-color:#4facfe;stop-opacity:1" />
            <stop offset="100%" style="stop-color:#00f2fe;stop-opacity:1" />
        </linearGradient>
        <marker id="arrowhead" markerWidth="10" markerHeight="7" refX="10" refY="3.5" orient="auto">
            <polygon points="0 0, 10 3.5, 0 7" fill="#2563eb"/>
        </marker>
        <filter id="shadow" x="-20%" y="-20%" width="140%" height="140%">
            <feDropShadow dx="2" dy="2" stdDeviation="3" flood-color="#000" flood-opacity="0.3"/>
        </filter>
    </defs>
    
<rect x="700" y="350" width="200" height="100" fill="url(#serviceGradient)" stroke="#1e40af" stroke-width="3" rx="15" filter="url(#shadow)"/>
<text x="800" y="395" text-anchor="middle" font-family="Arial, sans-serif" font-size="14" font-weight="bold" fill="white">Call Center Wrap</text>
<text x="800" y="415" text-anchor="middle" font-family="Arial, sans-serif" font-size="12" fill="white">SOA</text>
<text x="800" y="435" text-anchor="middle" font-family="Arial, sans-serif" font-size="11" fill="white">Zone: internal</text>
<ellipse cx="1125" cy="410" rx="75" ry="15" fill="#e2e8f0" stroke="#64748b" stroke-width="2"/>
<rect x="1050" y="410" width="150" height="60" fill="#e2e8f0" stroke="#64748b" stroke-width="2"/>
<ellipse cx="1125" cy="470" rx="75" ry="15" fill="#e2e8f0" stroke="#64748b" stroke-width="2"/>
<text x="1125" y="445" text-anchor="middle" font-family="Arial, sans-serif" font-size="12" font-weight="bold" fill="#1e293b">AOD Survey</text>
<ellipse cx="1051" cy="586" rx="75" ry="15" fill="#e2e8f0" stroke="#64748b" stroke-width="2"/>
<rect x="976" y="586" width="150" height="60" fill="#e2e8f0" stroke="#64748b" stroke-width="2"/>
<ellipse cx="1051" cy="646" rx="75" ry="15" fill="#e2e8f0" stroke="#64748b" stroke-width="2"/>
<text x="1051" y="621" text-anchor="middle" font-family="Arial, sans-serif" font-size="12" font-weight="bold" fill="#1e293b">BLEND SSO</text>
<ellipse cx="875" cy="659" rx="75" ry="15" fill="#e2e8f0" stroke="#64748b" stroke-width="2"/>
<rect x="800" y="659" width="150" height="60" fill="#e2e8f0" stroke="#64748b" stroke-width="2"/>
<ellipse cx="875" cy="719" rx="75" ry="15" fill="#e2e8f0" stroke="#64748b" stroke-width="2"/>
<text x="875" y="694" text-anchor="middle" font-family="Arial, sans-serif" font-size="12" font-weight="bold" fill="#1e293b">BankPro</text>
<ellipse cx="699" cy="586" rx="75" ry="15" fill="#e2e8f0" stroke="#64748b" stroke-width="2"/>
<rect x="624" y="586" width="150" height="60" fill="#e2e8f0" stroke="#64748b" stroke-width="2"/>
<ellipse cx="699" cy="646" rx="75" ry="15" fill="#e2e8f0" stroke="#64748b" stroke-width="2"/>
<text x="699" y="621" text-anchor="middle" font-family="Arial, sans-serif" font-size="12" font-weight="bold" fill="#1e293b">BillerXchange</text>
<ellipse cx="626" cy="410" rx="75" ry="15" fill="#e2e8f0" stroke="#64748b" stroke-width="2"/>
<rect x="551" y="410" width="150" height="60" fill="#e2e8f0" stroke="#64748b" stroke-width="2"/>
<ellipse cx="626" cy="470" rx="75" ry="15" fill="#e2e8f0" stroke="#64748b" stroke-width="2"/>
<text x="626" y="445" text-anchor="middle" font-family="Arial, sans-serif" font-size="12" font-weight="bold" fill="#1e293b">CRE Closer</text>
<ellipse cx="699" cy="234" rx="75" ry="15" fill="#e2e8f0" stroke="#64748b" stroke-width="2"/>
<rect x="624" y="234" width="150" height="60" fill="#e2e8f0" stroke="#64748b" stroke-width="2"/>
<ellipse cx="699" cy="294" rx="75" ry="15" fill="#e2e8f0" stroke="#64748b" stroke-width="2"/>
<text x="699" y="269" text-anchor="middle" font-family="Arial, sans-serif" font-size="12" font-weight="bold" fill="#1e293b">DataCard Data P</text>
<ellipse cx="875" cy="161" rx="75" ry="15" fill="#e2e8f0" stroke="#64748b" stroke-width="2"/>
<rect x="800" y="161" width="150" height="60" fill="#e2e8f0" stroke="#64748b" stroke-width="2"/>
<ellipse cx="875" cy="221" rx="75" ry="15" fill="#e2e8f0" stroke="#64748b" stroke-width="2"/>
<text x="875" y="196" text-anchor="middle" font-family="Arial, sans-serif" font-size="12" font-weight="bold" fill="#1e293b">CMRDB</text>
<ellipse cx="1051" cy="234" rx="75" ry="15" fill="#e2e8f0" stroke="#64748b" stroke-width="2"/>
<rect x="976" y="234" width="150" height="60" fill="#e2e8f0" stroke="#64748b" stroke-width="2"/>
<ellipse cx="1051" cy="294" rx="75" ry="15" fill="#e2e8f0" stroke="#64748b" stroke-width="2"/>
<text x="1051" y="269" text-anchor="middle" font-family="Arial, sans-serif" font-size="12" font-weight="bold" fill="#1e293b">Collections Ope</text>
<path d="M 900 400 Q 975.0 390.0 1050 440" stroke="#2563eb" stroke-width="3" fill="none" marker-end="url(#arrowhead)"/>
<rect x="931.0" y="378.0" width="88" height="20" fill="white" stroke="#e5e7eb" rx="10" opacity="0.9"/>
<text x="975.0" y="390.0" text-anchor="middle" font-family="Arial, sans-serif" font-size="11" font-weight="600" fill="#1e40af">data access</text>
<path d="M 900 400 Q 938.0 478.0 976 616" stroke="#2563eb" stroke-width="3" fill="none" marker-end="url(#arrowhead)"/>
<rect x="894.0" y="466.0" width="88" height="20" fill="white" stroke="#e5e7eb" rx="10" opacity="0.9"/>
<text x="938.0" y="478.0" text-anchor="middle" font-family="Arial, sans-serif" font-size="11" font-weight="600" fill="#1e40af">data access</text>
<path d="M 900 400 Q 850.0 514.5 800 689" stroke="#2563eb" stroke-width="3" fill="none" marker-end="url(#arrowhead)"/>
<rect x="806.0" y="502.5" width="88" height="20" fill="white" stroke="#e5e7eb" rx="10" opacity="0.9"/>
<text x="850.0" y="514.5" text-anchor="middle" font-family="Arial, sans-serif" font-size="11" font-weight="600" fill="#1e40af">data access</text>
<path d="M 900 400 Q 762.0 478.0 624 616" stroke="#2563eb" stroke-width="3" fill="none" marker-end="url(#arrowhead)"/>
<rect x="718.0" y="466.0" width="88" height="20" fill="white" stroke="#e5e7eb" rx="10" opacity="0.9"/>
<text x="762.0" y="478.0" text-anchor="middle" font-family="Arial, sans-serif" font-size="11" font-weight="600" fill="#1e40af">data access</text>
<path d="M 900 400 Q 725.5 390.0 551 440" stroke="#2563eb" stroke-width="3" fill="none" marker-end="url(#arrowhead)"/>
<rect x="681.5" y="378.0" width="88" height="20" fill="white" stroke="#e5e7eb" rx="10" opacity="0.9"/>
<text x="725.5" y="390.0" text-anchor="middle" font-family="Arial, sans-serif" font-size="11" font-weight="600" fill="#1e40af">data access</text>
<path d="M 900 400 Q 762.0 302.0 624 264" stroke="#2563eb" stroke-width="3" fill="none" marker-end="url(#arrowhead)"/>
<rect x="718.0" y="290.0" width="88" height="20" fill="white" stroke="#e5e7eb" rx="10" opacity="0.9"/>
<text x="762.0" y="302.0" text-anchor="middle" font-family="Arial, sans-serif" font-size="11" font-weight="600" fill="#1e40af">data access</text>
<path d="M 900 400 Q 850.0 265.5 800 191" stroke="#2563eb" stroke-width="3" fill="none" marker-end="url(#arrowhead)"/>
<rect x="806.0" y="253.5" width="88" height="20" fill="white" stroke="#e5e7eb" rx="10" opacity="0.9"/>
<text x="850.0" y="265.5" text-anchor="middle" font-family="Arial, sans-serif" font-size="11" font-weight="600" fill="#1e40af">data access</text>
<path d="M 900 400 Q 938.0 302.0 976 264" stroke="#2563eb" stroke-width="3" fill="none" marker-end="url(#arrowhead)"/>
<rect x="894.0" y="290.0" width="88" height="20" fill="white" stroke="#e5e7eb" rx="10" opacity="0.9"/>
<text x="938.0" y="302.0" text-anchor="middle" font-family="Arial, sans-serif" font-size="11" font-weight="600" fill="#1e40af">data access</text>
</svg>