<svg width="1200" height="800" xmlns="http://www.w3.org/2000/svg">

    <defs>
        <linearGradient id="apiGradient" x1="0%" y1="0%" x2="0%" y2="100%">
            <stop offset="0%" style="stop-color:#667eea;stop-opacity:1" />
            <stop offset="100%" style="stop-color:#764ba2;stop-opacity:1" />
        </linearGradient>
        <linearGradient id="dataGradient" x1="0%" y1="0%" x2="0%" y2="100%">
            <stop offset="0%" style="stop-color:#f093fb;stop-opacity:1" />
            <stop offset="100%" style="stop-color:#f5576c;stop-opacity:1" />
        </linearGradient>
        <linearGradient id="serviceGradient" x1="0%" y1="0%" x2="0%" y2="100%">
            <stop offset="0%" style="stop-color:#4facfe;stop-opacity:1" />
            <stop offset="100%" style="stop-color:#00f2fe;stop-opacity:1" />
        </linearGradient>
        <marker id="arrowhead" markerWidth="10" markerHeight="7" refX="10" refY="3.5" orient="auto">
            <polygon points="0 0, 10 3.5, 0 7" fill="#2563eb"/>
        </marker>
        <filter id="shadow" x="-20%" y="-20%" width="140%" height="140%">
            <feDropShadow dx="2" dy="2" stdDeviation="3" flood-color="#000" flood-opacity="0.3"/>
        </filter>
    </defs>
    
<ellipse cx="600" cy="365" rx="100" ry="20" fill="url(#dataGradient)" stroke="#dc2626" stroke-width="3" filter="url(#shadow)"/>
<rect x="500" y="365" width="200" height="80" fill="url(#dataGradient)" stroke="#dc2626" stroke-width="3" filter="url(#shadow)"/>
<ellipse cx="600" cy="445" rx="100" ry="20" fill="url(#dataGradient)" stroke="#dc2626" stroke-width="3"/>
<text x="600" y="405" text-anchor="middle" font-family="Arial, sans-serif" font-size="14" font-weight="bold" fill="white">Automation Bot for S</text>
<text x="600" y="425" text-anchor="middle" font-family="Arial, sans-serif" font-size="12" fill="white">Data Store</text>
<rect x="850" y="400" width="150" height="80" fill="#f8fafc" stroke="#475569" stroke-width="2" rx="8"/>
<text x="925" y="895" text-anchor="middle" font-family="Arial, sans-serif" font-size="12" font-weight="bold" fill="#1e293b">Lending Status </text>
<rect x="476" y="616" width="150" height="80" fill="#f8fafc" stroke="#475569" stroke-width="2" rx="8"/>
<text x="551" y="521" text-anchor="middle" font-family="Arial, sans-serif" font-size="12" font-weight="bold" fill="#1e293b">Business Holida</text>
<rect x="475" y="184" width="150" height="80" fill="#f8fafc" stroke="#475569" stroke-width="2" rx="8"/>
<text x="550" y="520" text-anchor="middle" font-family="Arial, sans-serif" font-size="12" font-weight="bold" fill="#1e293b">IVR VoicePortal</text>
<path d="M 1000 440 Q 750.0 390.0 500 400" stroke="#2563eb" stroke-width="3" fill="none" marker-end="url(#arrowhead)"/>
<rect x="706.0" y="378.0" width="88" height="20" fill="white" stroke="#e5e7eb" rx="10" opacity="0.9"/>
<text x="750.0" y="390.0" text-anchor="middle" font-family="Arial, sans-serif" font-size="11" font-weight="600" fill="#1e40af">data access</text>
<path d="M 626 656 Q 563.0 498.0 500 400" stroke="#2563eb" stroke-width="3" fill="none" marker-end="url(#arrowhead)"/>
<rect x="519.0" y="486.0" width="88" height="20" fill="white" stroke="#e5e7eb" rx="10" opacity="0.9"/>
<text x="563.0" y="498.0" text-anchor="middle" font-family="Arial, sans-serif" font-size="11" font-weight="600" fill="#1e40af">data access</text>
<path d="M 625 224 Q 562.5 282.0 500 400" stroke="#2563eb" stroke-width="3" fill="none" marker-end="url(#arrowhead)"/>
<rect x="518.5" y="270.0" width="88" height="20" fill="white" stroke="#e5e7eb" rx="10" opacity="0.9"/>
<text x="562.5" y="282.0" text-anchor="middle" font-family="Arial, sans-serif" font-size="11" font-weight="600" fill="#1e40af">data access</text>
</svg>