<svg width="1600" height="800" xmlns="http://www.w3.org/2000/svg">

    <defs>
        <linearGradient id="apiGradient" x1="0%" y1="0%" x2="0%" y2="100%">
            <stop offset="0%" style="stop-color:#667eea;stop-opacity:1" />
            <stop offset="100%" style="stop-color:#764ba2;stop-opacity:1" />
        </linearGradient>
        <linearGradient id="dataGradient" x1="0%" y1="0%" x2="0%" y2="100%">
            <stop offset="0%" style="stop-color:#f093fb;stop-opacity:1" />
            <stop offset="100%" style="stop-color:#f5576c;stop-opacity:1" />
        </linearGradient>
        <linearGradient id="serviceGradient" x1="0%" y1="0%" x2="0%" y2="100%">
            <stop offset="0%" style="stop-color:#4facfe;stop-opacity:1" />
            <stop offset="100%" style="stop-color:#00f2fe;stop-opacity:1" />
        </linearGradient>
        <marker id="arrowhead" markerWidth="10" markerHeight="7" refX="10" refY="3.5" orient="auto">
            <polygon points="0 0, 10 3.5, 0 7" fill="#2563eb"/>
        </marker>
        <filter id="shadow" x="-20%" y="-20%" width="140%" height="140%">
            <feDropShadow dx="2" dy="2" stdDeviation="3" flood-color="#000" flood-opacity="0.3"/>
        </filter>
    </defs>
    
<ellipse cx="800" cy="365" rx="100" ry="20" fill="url(#dataGradient)" stroke="#dc2626" stroke-width="3" filter="url(#shadow)"/>
<rect x="700" y="365" width="200" height="80" fill="url(#dataGradient)" stroke="#dc2626" stroke-width="3" filter="url(#shadow)"/>
<ellipse cx="800" cy="445" rx="100" ry="20" fill="url(#dataGradient)" stroke="#dc2626" stroke-width="3"/>
<text x="800" y="405" text-anchor="middle" font-family="Arial, sans-serif" font-size="14" font-weight="bold" fill="white">DataCard Data Prepar</text>
<text x="800" y="425" text-anchor="middle" font-family="Arial, sans-serif" font-size="12" fill="white">Data Store</text>
<rect x="1050" y="400" width="150" height="80" fill="#f8fafc" stroke="#475569" stroke-width="2" rx="8"/>
<text x="1125" y="445" text-anchor="middle" font-family="Arial, sans-serif" font-size="12" font-weight="bold" fill="#1e293b">Advisor Locator</text>
<rect x="976" y="576" width="150" height="80" fill="#f8fafc" stroke="#475569" stroke-width="2" rx="8"/>
<text x="1051" y="621" text-anchor="middle" font-family="Arial, sans-serif" font-size="12" font-weight="bold" fill="#1e293b">Appointment Set</text>
<rect x="800" y="649" width="150" height="80" fill="#f8fafc" stroke="#475569" stroke-width="2" rx="8"/>
<text x="875" y="694" text-anchor="middle" font-family="Arial, sans-serif" font-size="12" font-weight="bold" fill="#1e293b">Automated Vault</text>
<rect x="624" y="576" width="150" height="80" fill="#f8fafc" stroke="#475569" stroke-width="2" rx="8"/>
<text x="699" y="621" text-anchor="middle" font-family="Arial, sans-serif" font-size="12" font-weight="bold" fill="#1e293b">ACBS Loan Syndi</text>
<rect x="551" y="400" width="150" height="80" fill="#f8fafc" stroke="#475569" stroke-width="2" rx="8"/>
<text x="626" y="445" text-anchor="middle" font-family="Arial, sans-serif" font-size="12" font-weight="bold" fill="#1e293b">Branch Operatio</text>
<rect x="624" y="224" width="150" height="80" fill="#f8fafc" stroke="#475569" stroke-width="2" rx="8"/>
<text x="699" y="269" text-anchor="middle" font-family="Arial, sans-serif" font-size="12" font-weight="bold" fill="#1e293b">BankPro</text>
<rect x="800" y="151" width="150" height="80" fill="#f8fafc" stroke="#475569" stroke-width="2" rx="8"/>
<text x="875" y="196" text-anchor="middle" font-family="Arial, sans-serif" font-size="12" font-weight="bold" fill="#1e293b">Branch Technolo</text>
<rect x="976" y="224" width="150" height="80" fill="#f8fafc" stroke="#475569" stroke-width="2" rx="8"/>
<text x="1051" y="269" text-anchor="middle" font-family="Arial, sans-serif" font-size="12" font-weight="bold" fill="#1e293b">Computer Assist</text>
<path d="M 1200 440 Q 950.0 390.0 700 400" stroke="#2563eb" stroke-width="3" fill="none" marker-end="url(#arrowhead)"/>
<rect x="906.0" y="378.0" width="88" height="20" fill="white" stroke="#e5e7eb" rx="10" opacity="0.9"/>
<text x="950.0" y="390.0" text-anchor="middle" font-family="Arial, sans-serif" font-size="11" font-weight="600" fill="#1e40af">data access</text>
<path d="M 1126 616 Q 913.0 478.0 700 400" stroke="#2563eb" stroke-width="3" fill="none" marker-end="url(#arrowhead)"/>
<rect x="869.0" y="466.0" width="88" height="20" fill="white" stroke="#e5e7eb" rx="10" opacity="0.9"/>
<text x="913.0" y="478.0" text-anchor="middle" font-family="Arial, sans-serif" font-size="11" font-weight="600" fill="#1e40af">data access</text>
<path d="M 950 689 Q 825.0 514.5 700 400" stroke="#2563eb" stroke-width="3" fill="none" marker-end="url(#arrowhead)"/>
<rect x="781.0" y="502.5" width="88" height="20" fill="white" stroke="#e5e7eb" rx="10" opacity="0.9"/>
<text x="825.0" y="514.5" text-anchor="middle" font-family="Arial, sans-serif" font-size="11" font-weight="600" fill="#1e40af">data access</text>
<path d="M 774 616 Q 737.0 478.0 700 400" stroke="#2563eb" stroke-width="3" fill="none" marker-end="url(#arrowhead)"/>
<rect x="693.0" y="466.0" width="88" height="20" fill="white" stroke="#e5e7eb" rx="10" opacity="0.9"/>
<text x="737.0" y="478.0" text-anchor="middle" font-family="Arial, sans-serif" font-size="11" font-weight="600" fill="#1e40af">data access</text>
<path d="M 701 440 Q 700.5 390.0 700 400" stroke="#2563eb" stroke-width="3" fill="none" marker-end="url(#arrowhead)"/>
<rect x="656.5" y="378.0" width="88" height="20" fill="white" stroke="#e5e7eb" rx="10" opacity="0.9"/>
<text x="700.5" y="390.0" text-anchor="middle" font-family="Arial, sans-serif" font-size="11" font-weight="600" fill="#1e40af">data access</text>
<path d="M 774 264 Q 737.0 302.0 700 400" stroke="#2563eb" stroke-width="3" fill="none" marker-end="url(#arrowhead)"/>
<rect x="693.0" y="290.0" width="88" height="20" fill="white" stroke="#e5e7eb" rx="10" opacity="0.9"/>
<text x="737.0" y="302.0" text-anchor="middle" font-family="Arial, sans-serif" font-size="11" font-weight="600" fill="#1e40af">data access</text>
<path d="M 950 191 Q 825.0 265.5 700 400" stroke="#2563eb" stroke-width="3" fill="none" marker-end="url(#arrowhead)"/>
<rect x="781.0" y="253.5" width="88" height="20" fill="white" stroke="#e5e7eb" rx="10" opacity="0.9"/>
<text x="825.0" y="265.5" text-anchor="middle" font-family="Arial, sans-serif" font-size="11" font-weight="600" fill="#1e40af">data access</text>
<path d="M 1126 264 Q 913.0 302.0 700 400" stroke="#2563eb" stroke-width="3" fill="none" marker-end="url(#arrowhead)"/>
<rect x="869.0" y="290.0" width="88" height="20" fill="white" stroke="#e5e7eb" rx="10" opacity="0.9"/>
<text x="913.0" y="302.0" text-anchor="middle" font-family="Arial, sans-serif" font-size="11" font-weight="600" fill="#1e40af">data access</text>
</svg>